<svg width="24" height="24" viewBox="0 0 24 24" fill="none" xmlns="http://www.w3.org/2000/svg">
<path d="M1.00453 0.0287108C0.735476 0.0990794 0.490334 0.263272 0.3289 0.479069C-0.0119067 0.93412 5.14191e-05 0.399317 5.14191e-05 11.9538C5.14191e-05 19.4223 0.0179886 22.6639 0.0658211 22.8563C0.287046 23.7945 1.24968 24.2355 2.28405 23.8743C2.42755 23.8274 7.2108 21.4255 12.9148 18.545C20.0957 14.914 23.3602 13.2439 23.5157 13.1079C23.8505 12.8123 23.994 12.4746 24 11.9961C24 11.6818 23.9761 11.5504 23.8685 11.3627C23.5575 10.8279 24.0837 11.1094 13.0105 5.51277C7.28255 2.61827 2.43951 0.197595 2.2422 0.136609C1.85954 0.0146365 1.26761 -0.0369666 1.00453 0.0287108Z" fill="#D9D9D9"/>
</svg>
