<svg width="20" height="19" viewBox="0 0 20 19" fill="none" xmlns="http://www.w3.org/2000/svg">
<path d="M9.35708 0.264701C9.71203 -0.0882338 10.2873 -0.0882338 10.6422 0.264701L19.7331 9.31255C20.0881 9.66588 20.0881 10.2385 19.7331 10.5918C19.378 10.9452 18.8029 10.9452 18.4479 10.5918L18.1813 10.3272V17.1944C18.1813 18.1931 17.3688 18.9998 16.3629 19.0001H3.63638C2.63291 18.9998 1.81802 18.1931 1.81802 17.1944V10.3272L1.55142 10.5918C1.1964 10.9452 0.621286 10.9452 0.266264 10.5918C-0.0887529 10.2385 -0.0887564 9.66588 0.266264 9.31255L9.35708 0.264701ZM3.63638 8.51958C3.63619 10.2284 3.63638 17.1698 3.63638 17.1905L6.36294 17.1915V11.7598C6.36294 11.2614 6.77038 10.8575 7.27017 10.8575H12.7292C13.2297 10.8575 13.6364 11.2611 13.6364 11.7598V17.1924L16.3629 17.1944V8.51958L9.99966 2.19146L3.63638 8.51958ZM8.1813 12.667V17.1915L11.818 17.1924V12.6651L8.1813 12.667Z" fill="#C2C2C2"/>
</svg>
